<svg width="20" height="20" fill="none" xmlns="http://www.w3.org/2000/svg"><path d="M16.486 10.066a61.37 61.37 0 00-.463-1.56A19.198 19.198 0 0115 4.165a.833.833 0 111.667 0 .833.833 0 101.666 0 2.5 2.5 0 00-5 0c.021.637.11 1.27.266 1.887l-4 3.114-4.623-3.334H7.5a.833.833 0 100-1.666H4.976a1.64 1.64 0 00-.968 2.966l4.225 3.093-1.198.932a4.128 4.128 0 10.958 1.365L14.068 7.8c.117.397.605 1.987.713 2.353a4.162 4.162 0 101.705-.084v-.002zm-12.32 6.6a2.5 2.5 0 110-5 2.5 2.5 0 010 5zm11.667 0a2.5 2.5 0 110-5 2.5 2.5 0 010 5z" fill="#3922C5"/></svg>